<svg width="42" height="42" viewBox="0 0 42 42" fill="none" xmlns="http://www.w3.org/2000/svg">
<path d="M15 25.5C15 26.3284 14.3284 27 13.5 27C12.6716 27 12 26.3284 12 25.5C12 24.6716 12.6716 24 13.5 24C14.3284 24 15 24.6716 15 25.5Z" fill="black"/>
<path d="M24 28C24 31.3137 24 34 21.5 34C19 34 19 31.3137 19 28" stroke="black" stroke-width="2"/>
<path d="M31 25.5C31 26.3284 30.3284 27 29.5 27C28.6716 27 28 26.3284 28 25.5C28 24.6716 28.6716 24 29.5 24C30.3284 24 31 24.6716 31 25.5Z" fill="black"/>
<path d="M15 40H28V38H15V40Z" fill="black"/>
<path d="M21.5938 18L2 16.2581L4.96875 5.22581L21.5938 0L37.0312 5.22581L40 16.2581L21.5938 18Z" fill="black"/>
<path d="M21.2627 18L2 16.2581L4.91859 5.22581L21.2627 0V18Z" fill="#262626"/>
<path d="M7 25C7 23.5436 10.92 20.6048 17.08 21.0443C17.08 21.0443 19.32 21.0443 21 22.3629" stroke="black" stroke-width="2"/>
<path d="M36 25C36 23.5436 32.08 20.6048 25.92 21.0443C25.92 21.0443 23.68 21.0443 22 22.3629" stroke="black" stroke-width="2"/>
</svg>
