<svg width="42" height="42" viewBox="0 0 42 42" fill="none" xmlns="http://www.w3.org/2000/svg">
  <rect x="0" y="0" width="42" height="42" fill="rgba(0,0,0,0)"/>
  <path d="M4.81787 24C1.61967 7.19756 7.96378 0.434859 21 1.03671V4.39719C21 5.70954 19.852 7.1976 16.7618 7.1976C13.6717 7.1976 1.96221 8.99716 4.81787 24Z" fill="black" stroke="black" stroke-linejoin="round"/>
  <path d="M37.1821 24C40.3803 7.19756 34.0362 0.434859 21 1.03671V4.39719C21 5.70954 22.148 7.1976 25.2382 7.1976C28.3283 7.1976 40.0378 8.99716 37.1821 24Z" fill="black" stroke="black" stroke-linejoin="round"/>
  <path d="M10 19.381C10 16.6408 16 14.6408 20 17.1408" stroke="black" stroke-width="2" stroke-linejoin="round" fill="none"/>
  <path d="M32 19.381C32 16.6408 26 14.6408 22 17.1408" stroke="black" stroke-width="2" stroke-linejoin="round" fill="none"/>
  <path d="M17 19.5C17 20.3284 16.3284 21 15.5 21C14.6716 21 14 20.3284 14 19.5C14 18.6716 14.6716 18 15.5 18C16.3284 18 17 18.6716 17 19.5Z" fill="black"/>
  <path d="M23 24C23 25.6569 23 26 21 26C19 26 19 25.6569 19 24" stroke="black" stroke-width="2" fill="none"/>
  <path d="M28 19.5C28 20.3284 27.3284 21 26.5 21C25.6716 21 25 20.3284 25 19.5C25 18.6716 25.6716 18 26.5 18C27.3284 18 28 18.6716 28 19.5Z" fill="black"/>
  <path d="M26 36C26 37.1046 23.7614 38 21 38C18.2386 38 16 37.1046 16 36" stroke="black" stroke-width="2" stroke-linejoin="round" fill="none"/>
  <path d="M30 33C30 31.5 29.5 30 21 30C12.5 30 12 31.5 12 33" stroke="black" stroke-width="2" stroke-linejoin="round" fill="none"/>
  <path d="M37.4694 30.5772C37.334 30.4918 37.166 30.4763 37.0174 30.5355C36.8687 30.5948 36.7574 30.7216 36.7179 30.8767C36.4476 31.939 36.1574 32.7093 35.7108 33.4234C35.2621 34.1408 34.6386 34.8283 33.6659 35.7019C33.5493 35.8066 33.4886 35.9598 33.5018 36.116C33.515 36.2721 33.6006 36.413 33.7331 36.4967C35.3678 37.5284 37.5293 37.0397 38.561 35.405C39.5927 33.7704 39.104 31.6089 37.4694 30.5772Z" fill="black" stroke="black" stroke-linejoin="round"/>
  <path d="M16 31C16.1165 33.6623 26.1253 33.6711 25.9988 31" stroke="black" stroke-width="2" fill="none"/>
</svg>
