<svg width="42" height="42" viewBox="0 0 42 42" fill="none" xmlns="http://www.w3.org/2000/svg">
<rect x="2.5" y="26.5" width="37" height="13" rx="6.5" fill="white" stroke="white" stroke-width="5"/>
<rect x="1" y="25" width="40" height="16" rx="8" stroke="black" stroke-width="2"/>
<rect x="1" y="1" width="40" height="6" rx="3" fill="white" stroke="black" stroke-width="2"/>
<path d="M6 34H36V32H6V34Z" fill="black"/>
<path d="M23 15C23 12.7909 24.7909 11 27 11H37C39.2091 11 41 12.7909 41 15C41 17.2091 39.2091 19 37 19H27C24.7909 19 23 17.2091 23 15Z" fill="white" fill-opacity="0.5"/>
<path d="M27 12H37V10H27V12ZM37 18H27V20H37V18ZM27 18C25.3432 18 24 16.6568 24 15H22C22 17.7614 24.2386 20 27 20V18ZM40 15C40 16.6568 38.6569 18 37 18V20C39.7614 20 42 17.7614 42 15H40ZM37 12C38.6569 12 40 13.3432 40 15H42C42 12.2386 39.7614 10 37 10V12ZM27 10C24.2386 10 22 12.2386 22 15H24C24 13.3432 25.3432 12 27 12V10Z" fill="black"/>
<path d="M34 15C34 16.1046 33.1046 17 32 17C30.8954 17 30 16.1046 30 15C30 13.8954 30.8954 13 32 13C33.1046 13 34 13.8954 34 15Z" fill="black"/>
<path d="M1 15C1 12.7909 2.79086 11 5 11H15C17.2091 11 19 12.7909 19 15C19 17.2091 17.2091 19 15 19H5C2.79086 19 1 17.2091 1 15Z" fill="white" fill-opacity="0.5"/>
<path d="M5 12H15V10H5V12ZM15 18H5V20H15V18ZM5 18C3.34315 18 2 16.6568 2 15H0C0 17.7614 2.23858 20 5 20V18ZM18 15C18 16.6568 16.6569 18 15 18V20C17.7614 20 20 17.7614 20 15H18ZM15 12C16.6569 12 18 13.3432 18 15H20C20 12.2386 17.7614 10 15 10V12ZM5 10C2.23858 10 0 12.2386 0 15H2C2 13.3432 3.34315 12 5 12V10Z" fill="black"/>
<path d="M12 15C12 16.1046 11.1046 17 10 17C8.89543 17 8 16.1046 8 15C8 13.8954 8.89543 13 10 13C11.1046 13 12 13.8954 12 15Z" fill="black"/>
<line x1="19" y1="15" x2="23" y2="15" stroke="black" stroke-width="2"/>
</svg>
